# xmcd
#
# Track frame offsets: 
#        150
#        25023
#        45681
#        62508
#        75427
#        92421
#        112794
#        137507
#        159635
#        175466
#
# Disc length: 2665 seconds
#
# Revision: 0
# Processed by: cddbd v1.5.2PL0 Copyright (c) Steve Scherf et al.
# Submitted via: ExactAudioCopy v1.3
#
DISCID=6c0a670a
DTITLE=Jay O'Rourke - Twenty Sixteen
DYEAR=2017
DGENRE=Blues Rock
TTITLE0=When Ya Shake
TTITLE1=I Lied
TTITLE2=Not Runnin' Now
TTITLE3=That's Right
TTITLE4=Wise Crackin' Girl
TTITLE5=When The Cocaine Wears Off
TTITLE6=The Speed Of Light
TTITLE7=Not Enough
TTITLE8=1968
TTITLE9=Memo From Turner
EXTD=
EXTT0=
EXTT1=
EXTT2=
EXTT3=
EXTT4=
EXTT5=
EXTT6=
EXTT7=
EXTT8=
EXTT9=
PLAYORDER=
